<svg width="32" height="27" viewBox="0 0 32 27" fill="none" xmlns="http://www.w3.org/2000/svg">
<mask id="path-1-outside-1_2_174" maskUnits="userSpaceOnUse" x="0" y="0" width="32" height="27" fill="black">
<rect fill="white" width="32" height="27"/>
<path d="M1 4.43935C1 3.18195 1.57312 2.50394 2.71937 2.40533L7.13636 2.44231C7.43281 2.44231 7.63043 2.62722 7.72925 2.99704C8.18379 4.84615 8.69269 6.44255 9.25593 7.78624C9.81917 9.12993 10.5553 10.677 11.4644 12.4275C11.5435 12.6494 11.6719 12.7604 11.8498 12.7604C11.9881 12.7604 12.0968 12.6741 12.1759 12.5015L12.2648 12.0947L12.2945 5.69675C12.2945 5.25296 12.2105 4.9571 12.0425 4.80917C11.8745 4.66124 11.5632 4.5503 11.1087 4.47633C10.753 4.40237 10.5751 4.13116 10.5751 3.66272C10.5751 3.5641 10.585 3.49014 10.6047 3.44083C11.0198 1.83826 12.2055 1.03698 14.1621 1.03698L15.8221 1C16.5731 1 17.1957 1.23422 17.6897 1.70266C18.1838 2.1711 18.4308 2.91075 18.4308 3.9216V12.3166C18.5692 12.4398 18.6976 12.5015 18.8162 12.5015C19.1126 12.5015 19.3696 12.2796 19.587 11.8358C21.7609 8.03895 22.9368 5.49951 23.1146 4.21746C23.1146 4.1928 23.1344 4.13116 23.1739 4.03254C23.3123 3.66272 23.5395 3.34221 23.8557 3.07101C24.1719 2.7998 24.4486 2.61489 24.6858 2.51627C24.7648 2.46696 24.8538 2.44231 24.9526 2.44231H29.5474L29.8439 2.47929C30.2391 2.47929 30.5455 2.71351 30.7628 3.18195C30.8419 3.32988 30.8962 3.49014 30.9259 3.66272C30.9555 3.83531 30.9753 4.00789 30.9852 4.18047C30.9951 4.35306 31 4.45168 31 4.47633V4.73521C30.8617 5.74606 30.5109 6.8247 29.9476 7.97115C29.3844 9.1176 28.668 10.3565 27.7984 11.6879C26.9289 13.0192 26.3854 13.8945 26.168 14.3136C25.9901 14.6095 25.9012 14.8807 25.9012 15.1272C25.9012 15.3245 25.9802 15.5464 26.1383 15.7929L30.4664 22.5976C30.7036 22.9921 30.8221 23.4236 30.8221 23.892C30.8221 24.4591 30.6443 24.9275 30.2885 25.2973C29.9328 25.6672 29.5079 25.8767 29.0138 25.926L28.5099 25.963H24.004C23.9842 25.963 23.9447 25.9692 23.8854 25.9815C23.8261 25.9938 23.7866 26 23.7668 26C23.332 26 22.9269 25.7658 22.5514 25.2973C22.413 25.1001 21.4842 23.6455 19.7648 20.9334C19.666 20.7608 19.5277 20.6006 19.3498 20.4527C19.2708 20.8471 19.167 21.4142 19.0385 22.1538C18.9101 22.8935 18.8162 23.4236 18.7569 23.7441L18.668 24.3728C18.4704 25.2357 18.0553 25.7535 17.4229 25.926L17.0079 25.963H14.1028C12.4625 25.963 10.8271 25.0261 9.19664 23.1524C7.56621 21.2786 6.09881 18.8563 4.79447 15.8854C3.49012 12.9144 2.2747 9.45661 1.14822 5.51183C1.04941 5.19132 1 4.83383 1 4.43935ZM18.8162 14.0178C18.4012 14.0178 18.0257 13.876 17.6897 13.5925C17.3538 13.3089 17.1858 12.9206 17.1858 12.4275V3.9216C17.1858 3.4285 17.087 3.07717 16.8893 2.8676C16.6917 2.65804 16.3459 2.55325 15.8518 2.55325L14.1621 2.62722C13.3123 2.62722 12.67 2.81213 12.2352 3.18195C13.1047 3.6997 13.5395 4.53797 13.5395 5.69675V12.2056C13.5 12.822 13.3024 13.3336 12.9466 13.7404C12.5909 14.1472 12.1957 14.3506 11.7609 14.3506C11.168 14.3506 10.7134 13.9931 10.3972 13.2781C8.85573 10.3688 7.70949 7.6075 6.9585 4.99408L6.6917 4.03254L2.74901 3.99556C2.49209 3.99556 2.34881 4.01405 2.31917 4.05104C2.28953 4.08802 2.2747 4.1928 2.2747 4.36538C2.2747 4.58728 2.29447 4.8215 2.33399 5.06805L2.95652 7.13905C4.6166 12.4892 6.41996 16.7051 8.3666 19.787C10.3132 22.8688 12.2253 24.4098 14.1028 24.4098H17.0672C17.1858 24.4098 17.2747 24.3666 17.334 24.2803C17.3933 24.194 17.4427 24.0276 17.4822 23.7811L17.5415 23.4112L18.1047 20.1568C18.2628 19.713 18.4012 19.4172 18.5198 19.2692C18.7372 18.998 18.9941 18.8624 19.2905 18.8624C19.7648 18.8624 20.249 19.2199 20.7431 19.9349L23.2628 23.929C23.4209 24.2495 23.5889 24.4098 23.7668 24.4098H28.6581C29.251 24.4098 29.5474 24.2249 29.5474 23.855C29.5474 23.7318 29.5178 23.6085 29.4585 23.4852L25.1601 16.7914C24.8241 16.2737 24.6561 15.7189 24.6561 15.1272C24.6561 14.5355 24.8142 13.9684 25.1304 13.426C25.3874 12.9329 25.8864 12.1132 26.6275 10.9667C27.3686 9.82027 28.0158 8.74778 28.5692 7.74926C29.1225 6.75074 29.4881 5.84467 29.666 5.03107L29.7549 4.5503C29.7352 4.50099 29.7253 4.42086 29.7253 4.30991C29.7253 4.19896 29.7154 4.10651 29.6957 4.03254H25.0415C24.7451 4.18047 24.5079 4.40237 24.33 4.69822L24.1522 5.40089C23.6581 7.10207 22.3636 9.72781 20.2688 13.2781C19.8538 13.7712 19.3696 14.0178 18.8162 14.0178Z"/>
</mask>
<path d="M1 4.43935C1 3.18195 1.57312 2.50394 2.71937 2.40533L7.13636 2.44231C7.43281 2.44231 7.63043 2.62722 7.72925 2.99704C8.18379 4.84615 8.69269 6.44255 9.25593 7.78624C9.81917 9.12993 10.5553 10.677 11.4644 12.4275C11.5435 12.6494 11.6719 12.7604 11.8498 12.7604C11.9881 12.7604 12.0968 12.6741 12.1759 12.5015L12.2648 12.0947L12.2945 5.69675C12.2945 5.25296 12.2105 4.9571 12.0425 4.80917C11.8745 4.66124 11.5632 4.5503 11.1087 4.47633C10.753 4.40237 10.5751 4.13116 10.5751 3.66272C10.5751 3.5641 10.585 3.49014 10.6047 3.44083C11.0198 1.83826 12.2055 1.03698 14.1621 1.03698L15.8221 1C16.5731 1 17.1957 1.23422 17.6897 1.70266C18.1838 2.1711 18.4308 2.91075 18.4308 3.9216V12.3166C18.5692 12.4398 18.6976 12.5015 18.8162 12.5015C19.1126 12.5015 19.3696 12.2796 19.587 11.8358C21.7609 8.03895 22.9368 5.49951 23.1146 4.21746C23.1146 4.1928 23.1344 4.13116 23.1739 4.03254C23.3123 3.66272 23.5395 3.34221 23.8557 3.07101C24.1719 2.7998 24.4486 2.61489 24.6858 2.51627C24.7648 2.46696 24.8538 2.44231 24.9526 2.44231H29.5474L29.8439 2.47929C30.2391 2.47929 30.5455 2.71351 30.7628 3.18195C30.8419 3.32988 30.8962 3.49014 30.9259 3.66272C30.9555 3.83531 30.9753 4.00789 30.9852 4.18047C30.9951 4.35306 31 4.45168 31 4.47633V4.73521C30.8617 5.74606 30.5109 6.8247 29.9476 7.97115C29.3844 9.1176 28.668 10.3565 27.7984 11.6879C26.9289 13.0192 26.3854 13.8945 26.168 14.3136C25.9901 14.6095 25.9012 14.8807 25.9012 15.1272C25.9012 15.3245 25.9802 15.5464 26.1383 15.7929L30.4664 22.5976C30.7036 22.9921 30.8221 23.4236 30.8221 23.892C30.8221 24.4591 30.6443 24.9275 30.2885 25.2973C29.9328 25.6672 29.5079 25.8767 29.0138 25.926L28.5099 25.963H24.004C23.9842 25.963 23.9447 25.9692 23.8854 25.9815C23.8261 25.9938 23.7866 26 23.7668 26C23.332 26 22.9269 25.7658 22.5514 25.2973C22.413 25.1001 21.4842 23.6455 19.7648 20.9334C19.666 20.7608 19.5277 20.6006 19.3498 20.4527C19.2708 20.8471 19.167 21.4142 19.0385 22.1538C18.9101 22.8935 18.8162 23.4236 18.7569 23.7441L18.668 24.3728C18.4704 25.2357 18.0553 25.7535 17.4229 25.926L17.0079 25.963H14.1028C12.4625 25.963 10.8271 25.0261 9.19664 23.1524C7.56621 21.2786 6.09881 18.8563 4.79447 15.8854C3.49012 12.9144 2.2747 9.45661 1.14822 5.51183C1.04941 5.19132 1 4.83383 1 4.43935ZM18.8162 14.0178C18.4012 14.0178 18.0257 13.876 17.6897 13.5925C17.3538 13.3089 17.1858 12.9206 17.1858 12.4275V3.9216C17.1858 3.4285 17.087 3.07717 16.8893 2.8676C16.6917 2.65804 16.3459 2.55325 15.8518 2.55325L14.1621 2.62722C13.3123 2.62722 12.67 2.81213 12.2352 3.18195C13.1047 3.6997 13.5395 4.53797 13.5395 5.69675V12.2056C13.5 12.822 13.3024 13.3336 12.9466 13.7404C12.5909 14.1472 12.1957 14.3506 11.7609 14.3506C11.168 14.3506 10.7134 13.9931 10.3972 13.2781C8.85573 10.3688 7.70949 7.6075 6.9585 4.99408L6.6917 4.03254L2.74901 3.99556C2.49209 3.99556 2.34881 4.01405 2.31917 4.05104C2.28953 4.08802 2.2747 4.1928 2.2747 4.36538C2.2747 4.58728 2.29447 4.8215 2.33399 5.06805L2.95652 7.13905C4.6166 12.4892 6.41996 16.7051 8.3666 19.787C10.3132 22.8688 12.2253 24.4098 14.1028 24.4098H17.0672C17.1858 24.4098 17.2747 24.3666 17.334 24.2803C17.3933 24.194 17.4427 24.0276 17.4822 23.7811L17.5415 23.4112L18.1047 20.1568C18.2628 19.713 18.4012 19.4172 18.5198 19.2692C18.7372 18.998 18.9941 18.8624 19.2905 18.8624C19.7648 18.8624 20.249 19.2199 20.7431 19.9349L23.2628 23.929C23.4209 24.2495 23.5889 24.4098 23.7668 24.4098H28.6581C29.251 24.4098 29.5474 24.2249 29.5474 23.855C29.5474 23.7318 29.5178 23.6085 29.4585 23.4852L25.1601 16.7914C24.8241 16.2737 24.6561 15.7189 24.6561 15.1272C24.6561 14.5355 24.8142 13.9684 25.1304 13.426C25.3874 12.9329 25.8864 12.1132 26.6275 10.9667C27.3686 9.82027 28.0158 8.74778 28.5692 7.74926C29.1225 6.75074 29.4881 5.84467 29.666 5.03107L29.7549 4.5503C29.7352 4.50099 29.7253 4.42086 29.7253 4.30991C29.7253 4.19896 29.7154 4.10651 29.6957 4.03254H25.0415C24.7451 4.18047 24.5079 4.40237 24.33 4.69822L24.1522 5.40089C23.6581 7.10207 22.3636 9.72781 20.2688 13.2781C19.8538 13.7712 19.3696 14.0178 18.8162 14.0178Z" fill="#101010"/>
<path d="M1 4.43935C1 3.18195 1.57312 2.50394 2.71937 2.40533L7.13636 2.44231C7.43281 2.44231 7.63043 2.62722 7.72925 2.99704C8.18379 4.84615 8.69269 6.44255 9.25593 7.78624C9.81917 9.12993 10.5553 10.677 11.4644 12.4275C11.5435 12.6494 11.6719 12.7604 11.8498 12.7604C11.9881 12.7604 12.0968 12.6741 12.1759 12.5015L12.2648 12.0947L12.2945 5.69675C12.2945 5.25296 12.2105 4.9571 12.0425 4.80917C11.8745 4.66124 11.5632 4.5503 11.1087 4.47633C10.753 4.40237 10.5751 4.13116 10.5751 3.66272C10.5751 3.5641 10.585 3.49014 10.6047 3.44083C11.0198 1.83826 12.2055 1.03698 14.1621 1.03698L15.8221 1C16.5731 1 17.1957 1.23422 17.6897 1.70266C18.1838 2.1711 18.4308 2.91075 18.4308 3.9216V12.3166C18.5692 12.4398 18.6976 12.5015 18.8162 12.5015C19.1126 12.5015 19.3696 12.2796 19.587 11.8358C21.7609 8.03895 22.9368 5.49951 23.1146 4.21746C23.1146 4.1928 23.1344 4.13116 23.1739 4.03254C23.3123 3.66272 23.5395 3.34221 23.8557 3.07101C24.1719 2.7998 24.4486 2.61489 24.6858 2.51627C24.7648 2.46696 24.8538 2.44231 24.9526 2.44231H29.5474L29.8439 2.47929C30.2391 2.47929 30.5455 2.71351 30.7628 3.18195C30.8419 3.32988 30.8962 3.49014 30.9259 3.66272C30.9555 3.83531 30.9753 4.00789 30.9852 4.18047C30.9951 4.35306 31 4.45168 31 4.47633V4.73521C30.8617 5.74606 30.5109 6.8247 29.9476 7.97115C29.3844 9.1176 28.668 10.3565 27.7984 11.6879C26.9289 13.0192 26.3854 13.8945 26.168 14.3136C25.9901 14.6095 25.9012 14.8807 25.9012 15.1272C25.9012 15.3245 25.9802 15.5464 26.1383 15.7929L30.4664 22.5976C30.7036 22.9921 30.8221 23.4236 30.8221 23.892C30.8221 24.4591 30.6443 24.9275 30.2885 25.2973C29.9328 25.6672 29.5079 25.8767 29.0138 25.926L28.5099 25.963H24.004C23.9842 25.963 23.9447 25.9692 23.8854 25.9815C23.8261 25.9938 23.7866 26 23.7668 26C23.332 26 22.9269 25.7658 22.5514 25.2973C22.413 25.1001 21.4842 23.6455 19.7648 20.9334C19.666 20.7608 19.5277 20.6006 19.3498 20.4527C19.2708 20.8471 19.167 21.4142 19.0385 22.1538C18.9101 22.8935 18.8162 23.4236 18.7569 23.7441L18.668 24.3728C18.4704 25.2357 18.0553 25.7535 17.4229 25.926L17.0079 25.963H14.1028C12.4625 25.963 10.8271 25.0261 9.19664 23.1524C7.56621 21.2786 6.09881 18.8563 4.79447 15.8854C3.49012 12.9144 2.2747 9.45661 1.14822 5.51183C1.04941 5.19132 1 4.83383 1 4.43935ZM18.8162 14.0178C18.4012 14.0178 18.0257 13.876 17.6897 13.5925C17.3538 13.3089 17.1858 12.9206 17.1858 12.4275V3.9216C17.1858 3.4285 17.087 3.07717 16.8893 2.8676C16.6917 2.65804 16.3459 2.55325 15.8518 2.55325L14.1621 2.62722C13.3123 2.62722 12.67 2.81213 12.2352 3.18195C13.1047 3.6997 13.5395 4.53797 13.5395 5.69675V12.2056C13.5 12.822 13.3024 13.3336 12.9466 13.7404C12.5909 14.1472 12.1957 14.3506 11.7609 14.3506C11.168 14.3506 10.7134 13.9931 10.3972 13.2781C8.85573 10.3688 7.70949 7.6075 6.9585 4.99408L6.6917 4.03254L2.74901 3.99556C2.49209 3.99556 2.34881 4.01405 2.31917 4.05104C2.28953 4.08802 2.2747 4.1928 2.2747 4.36538C2.2747 4.58728 2.29447 4.8215 2.33399 5.06805L2.95652 7.13905C4.6166 12.4892 6.41996 16.7051 8.3666 19.787C10.3132 22.8688 12.2253 24.4098 14.1028 24.4098H17.0672C17.1858 24.4098 17.2747 24.3666 17.334 24.2803C17.3933 24.194 17.4427 24.0276 17.4822 23.7811L17.5415 23.4112L18.1047 20.1568C18.2628 19.713 18.4012 19.4172 18.5198 19.2692C18.7372 18.998 18.9941 18.8624 19.2905 18.8624C19.7648 18.8624 20.249 19.2199 20.7431 19.9349L23.2628 23.929C23.4209 24.2495 23.5889 24.4098 23.7668 24.4098H28.6581C29.251 24.4098 29.5474 24.2249 29.5474 23.855C29.5474 23.7318 29.5178 23.6085 29.4585 23.4852L25.1601 16.7914C24.8241 16.2737 24.6561 15.7189 24.6561 15.1272C24.6561 14.5355 24.8142 13.9684 25.1304 13.426C25.3874 12.9329 25.8864 12.1132 26.6275 10.9667C27.3686 9.82027 28.0158 8.74778 28.5692 7.74926C29.1225 6.75074 29.4881 5.84467 29.666 5.03107L29.7549 4.5503C29.7352 4.50099 29.7253 4.42086 29.7253 4.30991C29.7253 4.19896 29.7154 4.10651 29.6957 4.03254H25.0415C24.7451 4.18047 24.5079 4.40237 24.33 4.69822L24.1522 5.40089C23.6581 7.10207 22.3636 9.72781 20.2688 13.2781C19.8538 13.7712 19.3696 14.0178 18.8162 14.0178Z" stroke="black" mask="url(#path-1-outside-1_2_174)"/>
</svg>
